# xmcd
#
# Track frame offsets:
#	150
#	13486
#	22092
#	53344
#	70665
#	82535
#	89456
#	114451
#
# Disc length: 3055 seconds
#
# Revision: 1
# Processed by: cddbd v1.5.2PL0 Copyright (c) Steve Scherf et al.
# Submitted via: audiograbber 1.83.01
#
DISCID=570bed08
DTITLE=Grateful Dead - 69-07-04 Electric Theatre, Chicago IL
DYEAR=1900
DGENRE=
TTITLE0=Sitting On Top Of The World
TTITLE1=Me and My Uncle
TTITLE2=Doin' That Rag
TTITLE3=Let Me In
TTITLE4=Dire Wolf
TTITLE5=Tuning
TTITLE6=St Stephen
TTITLE7=Turn On Your Lovelight
EXTD=
EXTT0=
EXTT1=
EXTT2=
EXTT3=
EXTT4=
EXTT5=
EXTT6=
EXTT7=
PLAYORDER=
